<svg xmlns="http://www.w3.org/2000/svg" viewBox="0 0 89.34 69.45"><defs><style>.cls-1{fill:#5aaeb8;}.cls-2{fill:#f9988f;}</style></defs><title>Layer 5</title><g id="Layer_2" data-name="Layer 2"><g id="Layer_5" data-name="Layer 5"><path class="cls-1" d="M.24,68.45A10.08,10.08,0,0,1,0,67.21c0-.16.84-.36,1.88-.48,3-.32,5-2,5.28-4.48.08-1-.12-1.72-1.12-3.6a20.64,20.64,0,0,1,0-19.82L7.4,36.47,7.36,22c0-15.25-.08-16-1.48-17.61a6.4,6.4,0,0,0-4.4-1.84H0l.08-1.2L.2.13,17.33,0C28.66,0,35,.05,36.1.29A13.12,13.12,0,0,1,46.47,11c.84,4.4-1.24,9.72-4.6,12a4.28,4.28,0,0,0-1.17,1,12.2,12.2,0,0,0,2.17,1.09,25.67,25.67,0,0,1,7.08,5,23.35,23.35,0,0,1,6.44,15.77v2.4a7.67,7.67,0,0,0-2.46-.52,17.14,17.14,0,0,0-5.94.84,11.86,11.86,0,0,0-5.08,5A9.88,9.88,0,0,0,42,57.85a10.16,10.16,0,0,0,1.92,7l.92,1.36a19.64,19.64,0,0,1-9.73,2.87c-3.07.17-7.9.2-16.41.25L.44,69.45Zm29.7-6C39.5,60,45.15,52,43.91,42.84c-1.4-10.17-9-17.53-18.37-17.61-2.17,0-2.49-.08-1.81-.37,5.49-2.4,8.21-4.56,9.73-7.72,1.8-3.68,1-8.2-2.08-11.57-3.44-3.76-7.73-4.24-10.33-1.12-1.36,1.6-1.52,2.88-1.48,12.49l0,9L17.41,27a19.23,19.23,0,0,0-6.36,5.16l-.92,1.24,1.64-1.2a20.45,20.45,0,0,1,13.57-4c9,.52,15.68,5.84,17,13.45,1.24,7.32-2,12.68-7.65,12.68a7.55,7.55,0,0,1-5.68-2,8.19,8.19,0,0,1-2.8-6.16c0-2.72.84-4.44,3.48-6.57,1.76-1.4,2.08-1.8,2-2.52-.2-1.84-5.44-3.24-9.57-2.6A14.72,14.72,0,0,0,10.61,44a13.77,13.77,0,0,0,.8,11.28,14.5,14.5,0,0,0,9.32,7.45,24.85,24.85,0,0,0,9.21-.28Z" transform="translate(0 0)"/><path class="cls-2" d="M59,69.13A20.52,20.52,0,0,1,48.79,65c-6-4.72-3.44-13.81,3.8-13.81a7.29,7.29,0,0,1,6.33,10.85c-.88,1.64-.8,3.08.24,4,2.2,2,6.76.92,8.56-2.2,2-3.28,1.92-2.76,2-30.94l.08-24.16a6.78,6.78,0,0,0-.72-3.06h0a5.48,5.48,0,0,0-4.76-3.08l-1.92-.24.08-1.16L62.64.13H89.21l.08,1.2c.12,1.12,0,1.2-.8,1.2a8.32,8.32,0,0,0-5.08,1.92c-1.12,1.2-1-.88-1.2,28.82C82.09,56,82.13,55.44,80,59.85c-2,4-6.45,7.48-11.41,8.76a32.44,32.44,0,0,1-9.64.52Z" transform="translate(0 0)"/></g></g></svg>