<svg xmlns="http://www.w3.org/2000/svg" viewBox="0 0 48.93 77.48"><defs><style>.cls-1{fill:#5aaeb8;}.cls-2{fill:#f9988f;}</style></defs><title>Layer 7</title><g id="Layer_2" data-name="Layer 2"><g id="Layer_7" data-name="Layer 7"><path class="cls-1" d="M0,64.08a7.69,7.69,0,0,1,1.32-4.8A11.82,11.82,0,0,1,4.5,56.22c.36-.24.42-2.1.48-22.14L5,12.18,3.84,11a6.81,6.81,0,0,1-2.4-5.58A9.52,9.52,0,0,1,2.52.72L2.94,0l.42.54A10.37,10.37,0,0,0,4.86,2.1,10.61,10.61,0,0,0,8.77,4.05a58.57,58.57,0,0,0,8.57.33c9.6,0,13,.3,17.1,1.44L35.1,6a19.19,19.19,0,0,1,3.1,1.22l.14.07a17.62,17.62,0,0,1,5,4.08A13.68,13.68,0,0,1,45,25.68a19.05,19.05,0,0,1-8.1,7.08,47.16,47.16,0,0,1,6.17,3.46,13.3,13.3,0,0,1,5.74,12.59l0,.1a13.41,13.41,0,0,1-.87,3.14C43.6,60.51,38,61,36,61.46a39.31,39.31,0,0,1-4.08.7c-1.08.18-6.42.3-11.88.3-10.2,0-11.23.25-14.7,1.08a23.41,23.41,0,0,0-5,2.28c-.3,0-.36-.42-.36-1.74Zm29.16-5.46c3.81-.8,6.42-3.48,7.92-5.22a8.7,8.7,0,0,0,1.08-2,13.72,13.72,0,0,0,.59-5.58,11.88,11.88,0,0,0-9.09-10.54c-1.16-.32-2.73-.61-2.73-.61l-.05-4.09.78-.12a14.12,14.12,0,0,0,6.72-3.66,11,11,0,0,0,1.74-11.7C33.3,9.3,27,6.84,17.34,7.68a18,18,0,0,0-3.6.54c-.24.24-.3,1.14-.3,3.84v3.6L12.6,16a7.36,7.36,0,0,0-2,1.74c-1.68,2.1-1.68,1.86-.12,2.46a9,9,0,0,1,2.16,1.08l.78.6.06,4.26.06,4.26.9.18.9.24v1.74c0,1.62-.06,1.8-.48,1.8a1.76,1.76,0,0,0-1,.24c-.48.24-.48.6-.48,11.7,0,9.06.06,11.58.3,11.76a32.64,32.64,0,0,0,5.82,1.08,41.21,41.21,0,0,0,9.6-.54Z"/><path class="cls-2" d="M7.26,77.22A7.87,7.87,0,0,1,2,73a6.18,6.18,0,0,1-.06-3.9c.6-1.86,3.45-3.14,5.46-2.34a6.25,6.25,0,0,1,2.76,3c2,4,3.42,4.8,5.1,3.12h0A5.61,5.61,0,0,0,16.53,70,44.36,44.36,0,0,0,17,64a62.09,62.09,0,0,1,7.31,0c.3.3-1,4.31-1.79,6a21.75,21.75,0,0,1-2.94,4.26,11.89,11.89,0,0,1-5.68,2.88,18.2,18.2,0,0,1-6.68.12Z"/><path class="cls-2" d="M17.16,57.36c-.18-.12-.3-5.16-.3-16.5L16.8,24.54l-.6-1.2a13.43,13.43,0,0,0-4.68-4.5,2.11,2.11,0,0,1,.66-.84,7.07,7.07,0,0,1,9-.42l.9.72,1.2-.84c3.84-2.64,8.16-1.74,10.68,2.22a6.87,6.87,0,0,1,.6,1.2c0,.24-4.24-.94-6.84.78a4.45,4.45,0,0,0-2,2.88c-.24.72-.3,5.64-.36,17.16l-.06,16.08A56.74,56.74,0,0,1,17.16,57.36Z"/></g></g></svg>